<svg version="1.1" xmlns="http://www.w3.org/2000/svg" xmlnsXlink="http://www.w3.org/1999/xlink" width="39.8438"
height="39.8633">
<g>
<rect height="39.8633" opacity="0" width="39.8438" x="0" y="0"/>
<path
d="M19.9219 39.8438C30.8203 39.8438 39.8438 30.8008 39.8438 19.9219C39.8438 9.02344 30.8008 0 19.9023 0C9.02344 0 0 9.02344 0 19.9219C0 30.8008 9.04297 39.8438 19.9219 39.8438ZM19.9219 36.5234C10.7031 36.5234 3.33984 29.1406 3.33984 19.9219C3.33984 10.7031 10.6836 3.32031 19.9023 3.32031C29.1211 3.32031 36.5234 10.7031 36.5234 19.9219C36.5234 29.1406 29.1406 36.5234 19.9219 36.5234ZM33.2812 32.793L33.2227 32.5781C32.2656 29.707 27.1094 26.5625 19.9219 26.5625C12.7539 26.5625 7.59766 29.707 6.62109 32.5586L6.5625 32.793C10.0781 36.2695 16.1133 38.3008 19.9219 38.3008C23.75 38.3008 29.7266 36.2891 33.2812 32.793ZM19.9219 23.2422C23.6914 23.2812 26.6211 20.0781 26.6211 15.8789C26.6211 11.9336 23.6719 8.67188 19.9219 8.67188C16.1719 8.67188 13.2031 11.9336 13.2227 15.8789C13.2422 20.0781 16.1719 23.2031 19.9219 23.2422Z"
fill="#888899"/>
</g>
</svg>
