<?xml version="1.0" encoding="UTF-8" standalone="no"?>
<!DOCTYPE svg PUBLIC "-//W3C//DTD SVG 1.1//EN" "http://www.w3.org/Graphics/SVG/1.1/DTD/svg11.dtd">
<!-- Created with Vectornator (http://vectornator.io/) -->
<svg stroke-miterlimit="10" style="fill-rule:nonzero;clip-rule:evenodd;stroke-linecap:round;stroke-linejoin:round;" version="1.1" viewBox="0 0 1000 338.2" xml:space="preserve" xmlns="http://www.w3.org/2000/svg" xmlns:xlink="http://www.w3.org/1999/xlink">
<defs/>
<g id="Untitled">
<g opacity="1">
<path d="M25.6 111.4L0 111.4L0 0L111.4 0L111.4 25.6L25.6 25.6L25.6 111.4" fill="#da1745" fill-rule="nonzero" opacity="1" stroke="none"/>
<path d="M143.2 205.8L143.2 228.3L88.3 228.3L88.3 257.7L137.6 257.7L137.6 280L88.3 280L88.3 314.1L143.2 314.1L143.2 336.5L61.8 336.5L61.8 205.8L143.2 205.8" fill="#0f2a52" fill-rule="nonzero" opacity="1" stroke="none"/>
<path d="M233.4 239.7C227.7 230.8 220.9 226.4 207.6 226.4C195.7 226.4 189.2 231.9 189.2 240.8C189.2 251 197.5 255.6 215 259.9C242.3 266.7 254.6 277 254.6 300.1C254.6 321.5 240.2 338.2 209.5 338.2C186.6 338.2 170.7 331.9 159.1 316.8L179.4 302.8C186.4 311.5 194.4 315.9 207.8 315.9C223 315.9 228.1 309.3 228.1 301.3C228.1 292.2 222.6 287.1 201.4 281.6C175.6 274.8 162.7 262.5 162.7 240.9C162.7 220.2 176.3 204.1 207.4 204.1C228.2 204.1 244 211.1 253.2 225.5L233.4 239.7" fill="#0f2a52" fill-rule="nonzero" opacity="1" stroke="none"/>
<path d="M346.2 239.7C340.5 230.8 333.7 226.4 320.4 226.4C308.5 226.4 302 231.9 302 240.8C302 251 310.3 255.6 327.8 259.9C355.1 266.7 367.4 277 367.4 300.1C367.4 321.5 353 338.2 322.3 338.2C299.4 338.2 283.5 331.9 271.9 316.8L292.2 302.8C299.2 311.5 307.2 315.9 320.6 315.9C335.8 315.9 340.9 309.3 340.9 301.3C340.9 292.2 335.4 287.1 314.2 281.6C288.4 274.8 275.5 262.5 275.5 240.9C275.5 220.2 289.1 204.1 320.2 204.1C341 204.1 356.8 211.1 366 225.5L346.2 239.7" fill="#0f2a52" fill-rule="nonzero" opacity="1" stroke="none"/>
<path d="M417.5 314.1L472.4 314.1L472.4 336.5L390.9 336.5L390.9 205.8L417.4 205.8L417.4 314.1" fill="#0f2a52" fill-rule="nonzero" opacity="1" stroke="none"/>
<path d="M518.7 336.5L492.2 336.5L492.2 205.8L518.7 205.8L518.7 336.5" fill="#0f2a52" fill-rule="nonzero" opacity="1" stroke="none"/>
<path d="M648.5 205.8L648.5 336.5L626.3 336.5L575.3 255.6L575.3 336.5L550.1 336.5L550.1 205.8L572.1 205.8L623.3 287.8L623.3 205.8L648.5 205.8" fill="#0f2a52" fill-rule="nonzero" opacity="1" stroke="none"/>
<path d="M772.4 268.5L772.4 280.4C772.4 320.4 753.8 338.2 724.3 338.2C694.9 338.2 674.3 320.4 674.3 280.4L674.3 263.7C674.3 221.5 695 204 724.3 204C751.8 204 768.3 219.5 772.2 246.2L746.8 246.2C744.5 234.3 737.5 226.3 724.3 226.3C709 226.3 700.8 236.7 700.8 261.7L700.8 280.3C700.8 305.3 708.9 315.7 724.3 315.7C739.3 315.7 745.3 306.4 746.8 290.7L724.8 290.7L724.8 268.3L772.4 268.5" fill="#0f2a52" fill-rule="nonzero" opacity="1" stroke="none"/>
<path d="M879.5 205.8L879.5 228.3L824.6 228.3L824.6 257.7L873.9 257.7L873.9 280L824.6 280L824.6 314.1L879.5 314.1L879.5 336.5L798 336.5L798 205.8L879.5 205.8" fill="#0f2a52" fill-rule="nonzero" opacity="1" stroke="none"/>
<path d="M1000 205.8L1000 336.5L977.8 336.5L926.8 255.6L926.8 336.5L901.6 336.5L901.6 205.8L923.6 205.8L974.8 287.8L974.8 205.8L1000 205.8" fill="#0f2a52" fill-rule="nonzero" opacity="1" stroke="none"/>
<path d="M124.3 109.6L70.9 109.6L70.9 62L61.8 62L61.8 169.7L70.9 169.7L70.9 118.1L124.3 118.1L124.3 169.7L133.3 169.7L133.3 62L124.3 62L124.3 109.6" fill="#0f2a52" fill-rule="nonzero" opacity="1" stroke="none"/>
<path d="M224.6 122.3C224.6 151.5 213 162.2 195.4 162.2C177.8 162.2 166.2 151.4 166.2 122.3L166.2 109.5C166.2 80.5 177.7 69.6 195.4 69.6C213 69.6 224.6 80.5 224.6 109.5L224.6 122.3ZM195.4 61.1C172.3 61.1 157.2 75.6 157.2 109.5L157.2 122.3C157.2 156.3 172.3 170.7 195.4 170.7C218.5 170.7 233.6 156.4 233.6 122.3L233.6 109.5C233.7 75.6 218.5 61.1 195.4 61.1" fill="#0f2a52" fill-rule="nonzero" opacity="1" stroke="none"/>
<path d="M295.8 69.5C310.5 69.5 321.2 76.4 324.8 94.6L333.7 94.6C330.3 71 315 61.1 295.8 61.1C272.4 61.1 257.6 74.7 257.6 109.5L257.6 122.3C257.6 157.1 272.4 170.7 295.8 170.7C314.2 170.7 330.1 161 333.6 136.8L324.9 136.8C321.5 154 311.5 162.2 295.9 162.2C277.6 162.2 266.7 151.7 266.7 122.3L266.7 109.5C266.6 80.1 277.4 69.5 295.8 69.5" fill="#0f2a52" fill-rule="nonzero" opacity="1" stroke="none"/>
<path d="M420.1 109.6L366.7 109.6L366.7 62L357.6 62L357.6 169.7L366.7 169.7L366.7 118.1L420.1 118.1L420.1 169.7L429.1 169.7L429.1 62L420.1 62L420.1 109.6" fill="#0f2a52" fill-rule="nonzero" opacity="1" stroke="none"/>
<path d="M492.5 111.7C476.9 108.3 464.6 104.4 464.6 88.9C464.6 75.6 474.4 69.6 489.3 69.6C504.1 69.6 511.6 75.7 517.2 84L524.4 78.9C516.9 67 506.3 61.3 489.6 61.3C465.4 61.3 455.6 73.9 455.6 89.1C455.6 108.3 469.3 116.1 489.5 120C509.8 123.9 517.3 130.1 517.3 143.1C517.3 153.6 510.1 162.4 490.9 162.4C474.8 162.4 467.3 156.5 460.6 148L453.3 153.1C461.3 164.8 473.7 170.7 490.9 170.7C516.6 170.7 526.3 156.4 526.3 142.6C526.2 122.3 512.8 116 492.5 111.7" fill="#0f2a52" fill-rule="nonzero" opacity="1" stroke="none"/>
<path d="M584.1 69.5C598.8 69.5 609.5 76.4 613.1 94.6L622 94.6C618.6 71 603.3 61.1 584.1 61.1C560.7 61.1 545.9 74.7 545.9 109.5L545.9 122.3C545.9 157.1 560.7 170.7 584.1 170.7C602.5 170.7 618.4 161 621.9 136.8L613.2 136.8C609.8 154 599.8 162.2 584.2 162.2C565.9 162.2 555 151.7 555 122.3L555 109.5C555 80.1 565.7 69.5 584.1 69.5" fill="#0f2a52" fill-rule="nonzero" opacity="1" stroke="none"/>
<path d="M707.4 109.6L654 109.6L654 62L645 62L645 169.7L654.1 169.7L654.1 118.1L707.5 118.1L707.5 169.7L716.5 169.7L716.5 62L707.5 62L707.4 109.6" fill="#0f2a52" fill-rule="nonzero" opacity="1" stroke="none"/>
<path d="M815.1 125.7C815.1 150.7 804.8 162.2 785.9 162.2C767 162.2 756.7 150.7 756.7 125.7L756.7 62L747.6 62L747.6 125.7C747.6 157.4 762.4 170.6 785.8 170.6C809.2 170.6 824 157.3 824 125.7L824 62L814.9 62L814.9 125.7" fill="#0f2a52" fill-rule="nonzero" opacity="1" stroke="none"/>
<path d="M862.6 62L853.5 62L853.5 169.7L916.8 169.7L916.8 161.3L862.5 161.3L862.5 62" fill="#0f2a52" fill-rule="nonzero" opacity="1" stroke="none"/>
<path d="M999.9 70.5L999.9 62L936.6 62L936.6 169.7L999.9 169.7L999.9 161.3L945.6 161.3L945.6 118.2L995.2 118.2L995.2 109.8L945.6 109.8L945.6 70.5L999.9 70.5" fill="#0f2a52" fill-rule="nonzero" opacity="1" stroke="none"/>
</g>
</g>
</svg>
